<svg width="149" height="40" viewbox="0 0 149 40" fill="none" xmlns="http://www.w3.org/2000/svg"><path d="M46.578 34.993a.69.69 0 0 1-.533-.216.777.777 0 0 1-.2-.548v-21.71c0-.244.067-.438.2-.582a.69.69 0 0 1 .532-.216h8.117c2.528 0 4.508.593 5.938 1.779 1.43 1.186 2.145 2.909 2.145 5.17 0 1.684-.42 3.07-1.264 4.155-.842 1.086-2.018 1.84-3.526 2.261l5.123 8.877c.067.133.1.255.1.365a.638.638 0 0 1-.2.466.638.638 0 0 1-.465.2H61.08c-.333 0-.593-.078-.782-.233a2.195 2.195 0 0 1-.515-.665l-4.89-8.511h-5.921v8.644a.716.716 0 0 1-.233.548.801.801 0 0 1-.566.216h-1.596Zm7.983-12.135c3.349 0 5.023-1.407 5.023-4.222 0-2.815-1.674-4.222-5.023-4.222h-5.588v8.444h5.588Zm19.676 12.468c-2.262 0-4.07-.704-5.422-2.111-1.353-1.408-2.096-3.33-2.229-5.769l-.033-1.13.033-1.097c.133-2.394.876-4.3 2.229-5.718 1.353-1.419 3.16-2.128 5.422-2.128 2.44 0 4.33.776 5.672 2.327 1.341 1.552 2.012 3.657 2.012 6.317v.598a.743.743 0 0 1-.216.549.744.744 0 0 1-.549.216H69.613v.3c.067 1.44.51 2.67 1.33 3.69.822 1.019 1.908 1.529 3.26 1.529 1.043 0 1.891-.205 2.546-.615.654-.41 1.147-.837 1.48-1.28.2-.266.355-.427.466-.482.11-.056.299-.083.565-.083h1.464c.2 0 .371.055.515.166a.52.52 0 0 1 .217.432c0 .488-.3 1.075-.899 1.762-.598.687-1.447 1.28-2.544 1.779-1.098.498-2.357.748-3.776.748Zm4.657-10.207v-.1c0-1.551-.421-2.814-1.264-3.79-.843-.975-1.974-1.462-3.393-1.462-1.441 0-2.572.487-3.393 1.463-.82.975-1.23 2.238-1.23 3.79v.1h9.28Zm14.054 9.874c-3.437 0-5.155-1.94-5.155-5.818v-8.91h-2.628a.72.72 0 0 1-.533-.2.719.719 0 0 1-.2-.531V18.47c0-.222.067-.404.2-.548a.69.69 0 0 1 .533-.217h2.627v-5.552c0-.221.067-.404.2-.548a.69.69 0 0 1 .532-.216h1.464c.222 0 .405.072.549.216a.743.743 0 0 1 .216.548v5.552h4.125a.743.743 0 0 1 .765.765v1.064a.689.689 0 0 1-.216.532.778.778 0 0 1-.55.2h-4.124v8.677c0 1.13.183 1.983.549 2.56.366.576.992.864 1.88.864h2.028c.222 0 .4.072.533.216.133.144.2.327.2.549v1.097a.777.777 0 0 1-.2.548.69.69 0 0 1-.532.216h-2.263Zm13.123.333c-2.106 0-3.736-.682-4.889-2.045-1.154-1.363-1.73-3.175-1.73-5.436V18.47c0-.222.072-.404.216-.548a.744.744 0 0 1 .549-.217h1.53c.222 0 .405.072.549.217a.743.743 0 0 1 .216.548v9.21c0 3.368 1.464 5.053 4.391 5.053 1.419 0 2.545-.45 3.376-1.347.832-.898 1.248-2.133 1.248-3.707V18.47c0-.222.072-.404.216-.548a.743.743 0 0 1 .549-.217h1.53c.222 0 .405.072.549.217a.743.743 0 0 1 .216.548v15.759a.744.744 0 0 1-.216.548.744.744 0 0 1-.549.216h-1.43a.744.744 0 0 1-.549-.216.744.744 0 0 1-.216-.548v-1.496c-.643.864-1.397 1.512-2.262 1.944-.865.433-1.963.649-3.294.649Zm14.687-.333a.744.744 0 0 1-.549-.216.744.744 0 0 1-.216-.548V18.503a.8.8 0 0 1 .216-.565.716.716 0 0 1 .549-.233h1.397c.244 0 .438.072.582.217.144.144.216.337.216.581v1.463c.91-1.507 2.451-2.26 4.624-2.26h1.297c.244 0 .433.066.566.199.133.133.199.321.199.565v1.23a.777.777 0 0 1-.199.549c-.133.144-.322.216-.566.216h-1.896c-1.219 0-2.179.354-2.877 1.064-.699.709-1.048 1.673-1.048 2.892v9.808a.717.717 0 0 1-.233.548.801.801 0 0 1-.565.216h-1.497Zm12.923 0a.744.744 0 0 1-.549-.216.744.744 0 0 1-.216-.548V18.47c0-.222.072-.404.216-.548a.743.743 0 0 1 .549-.217h1.431c.243 0 .432.067.565.2.133.133.2.321.2.565v1.463c.665-.82 1.436-1.452 2.312-1.895.875-.443 1.968-.665 3.276-.665 2.129 0 3.781.681 4.957 2.045 1.175 1.363 1.763 3.163 1.763 5.402v9.409a.744.744 0 0 1-.217.548.744.744 0 0 1-.549.216h-1.53a.747.747 0 0 1-.549-.216.744.744 0 0 1-.216-.548v-9.21c0-1.595-.388-2.836-1.164-3.723-.776-.887-1.885-1.33-3.327-1.33-1.419 0-2.55.449-3.393 1.347-.842.897-1.264 2.133-1.264 3.707v9.209a.744.744 0 0 1-.216.548.744.744 0 0 1-.549.216h-1.53Z" fill="#07274D"/><path d="M20.088 38.09c10.357 0 18.752-8.391 18.752-18.742C38.84 8.998 30.445.606 20.088.606 9.732.606 1.336 8.997 1.336 19.348c0 10.35 8.396 18.742 18.752 18.742Zm0-1.63c-9.456 0-17.121-7.661-17.121-17.112 0-9.45 7.665-17.112 17.121-17.112S37.21 9.897 37.21 19.348c0 9.45-7.666 17.112-17.122 17.112Z" fill="#000"/><path d="M20.089.117C9.462.117.848 8.727.848 19.347c0 10.621 8.614 19.231 19.241 19.231 10.627 0 19.241-8.61 19.241-19.23a1.304 1.304 0 0 0-2.609 0c0 9.18-7.446 16.623-16.632 16.623-9.186 0-16.632-7.443-16.632-16.623 0-9.18 7.446-16.623 16.632-16.623a1.304 1.304 0 1 0 0-2.608Z" fill="#07274D"/><path d="M.195 19.347c0 10.981 8.907 19.883 19.894 19.883 10.987 0 19.894-8.902 19.894-19.883a1.956 1.956 0 0 0-3.914 0c0 8.82-7.155 15.971-15.98 15.971-8.826 0-15.98-7.15-15.98-15.97a1.956 1.956 0 0 0-3.914 0Z" fill="#0D4D99"/><path d="M20.088 39.72c11.258 0 20.383-9.121 20.383-20.372a2.445 2.445 0 0 0-4.892 0c0 8.55-6.935 15.482-15.49 15.482a2.445 2.445 0 1 0 0 4.89Z" fill="#1681FF"/></svg>